<mxfile host="app.diagrams.net" modified="2022-12-05T16:29:51.544Z" agent="5.0 (Windows NT 10.0; Win64; x64) AppleWebKit/537.36 (KHTML, like Gecko) Chrome/108.0.0.0 Safari/537.36" version="20.6.0" etag="JTGdnV2WatFPTKtAtcjQ" type="github">
  <diagram id="VlKVVqyVtERDJIXMmFLj" name="Pagina-1">
    <mxGraphModel dx="1422" dy="754" grid="1" gridSize="10" guides="1" tooltips="1" connect="1" arrows="1" fold="1" page="1" pageScale="1" pageWidth="827" pageHeight="1169" math="0" shadow="0">
      <root>
        <mxCell id="0" />
        <mxCell id="1" parent="0" />
        <mxCell id="QuFJc0p54Mi-NLRQRqYn-3" value="" style="endArrow=none;html=1;rounded=0;entryX=0.5;entryY=1;entryDx=0;entryDy=0;exitX=0.625;exitY=0.2;exitDx=0;exitDy=0;exitPerimeter=0;" edge="1" parent="1" source="QuFJc0p54Mi-NLRQRqYn-2" target="QuFJc0p54Mi-NLRQRqYn-1">
          <mxGeometry width="50" height="50" relative="1" as="geometry">
            <mxPoint x="283.5" y="160" as="sourcePoint" />
            <mxPoint x="283.5" y="70" as="targetPoint" />
          </mxGeometry>
        </mxCell>
        <mxCell id="QuFJc0p54Mi-NLRQRqYn-2" value="is it cleanly &lt;br&gt;divisible by 4?" style="ellipse;shape=cloud;whiteSpace=wrap;html=1;" vertex="1" parent="1">
          <mxGeometry x="175.25" y="130" width="175" height="110" as="geometry" />
        </mxCell>
        <mxCell id="QuFJc0p54Mi-NLRQRqYn-1" value="&lt;font style=&quot;font-size: 15px;&quot;&gt;&lt;b&gt;Start&lt;/b&gt;&lt;/font&gt;" style="ellipse;whiteSpace=wrap;html=1;aspect=fixed;" vertex="1" parent="1">
          <mxGeometry x="244" y="20" width="80" height="80" as="geometry" />
        </mxCell>
        <mxCell id="QuFJc0p54Mi-NLRQRqYn-4" value="" style="curved=1;endArrow=classic;html=1;rounded=0;exitX=0.13;exitY=0.77;exitDx=0;exitDy=0;exitPerimeter=0;entryX=0.5;entryY=0;entryDx=0;entryDy=0;" edge="1" parent="1" source="QuFJc0p54Mi-NLRQRqYn-2">
          <mxGeometry width="50" height="50" relative="1" as="geometry">
            <mxPoint x="72.75" y="290" as="sourcePoint" />
            <mxPoint x="66.5" y="290" as="targetPoint" />
            <Array as="points">
              <mxPoint x="175.25" y="260" />
              <mxPoint x="125.25" y="210" />
            </Array>
          </mxGeometry>
        </mxCell>
        <mxCell id="QuFJc0p54Mi-NLRQRqYn-5" value="" style="curved=1;endArrow=classic;html=1;rounded=0;exitX=0.96;exitY=0.7;exitDx=0;exitDy=0;exitPerimeter=0;entryX=0.5;entryY=0;entryDx=0;entryDy=0;" edge="1" parent="1" source="QuFJc0p54Mi-NLRQRqYn-2">
          <mxGeometry width="50" height="50" relative="1" as="geometry">
            <mxPoint x="362.75" y="200" as="sourcePoint" />
            <mxPoint x="479" y="290" as="targetPoint" />
            <Array as="points">
              <mxPoint x="464" y="207" />
              <mxPoint x="464" y="180" />
              <mxPoint x="394" y="190" />
            </Array>
          </mxGeometry>
        </mxCell>
        <mxCell id="QuFJc0p54Mi-NLRQRqYn-9" value="NOT LEAP" style="shape=hexagon;perimeter=hexagonPerimeter2;whiteSpace=wrap;html=1;fixedSize=1;fillColor=#f8cecc;strokeColor=#b85450;" vertex="1" parent="1">
          <mxGeometry x="24" y="290" width="85" height="60" as="geometry" />
        </mxCell>
        <mxCell id="QuFJc0p54Mi-NLRQRqYn-12" value="is it also cleanly &lt;br&gt;divisible by 100?" style="ellipse;shape=cloud;whiteSpace=wrap;html=1;" vertex="1" parent="1">
          <mxGeometry x="394" y="280" width="175" height="110" as="geometry" />
        </mxCell>
        <mxCell id="QuFJc0p54Mi-NLRQRqYn-13" value="" style="curved=1;endArrow=classic;html=1;rounded=0;exitX=0.13;exitY=0.77;exitDx=0;exitDy=0;exitPerimeter=0;entryX=0.5;entryY=0;entryDx=0;entryDy=0;" edge="1" parent="1">
          <mxGeometry width="50" height="50" relative="1" as="geometry">
            <mxPoint x="418" y="364.70000000000005" as="sourcePoint" />
            <mxPoint x="286.5" y="440" as="targetPoint" />
            <Array as="points">
              <mxPoint x="395.25" y="410" />
              <mxPoint x="345.25" y="360" />
            </Array>
          </mxGeometry>
        </mxCell>
        <mxCell id="QuFJc0p54Mi-NLRQRqYn-17" value="" style="curved=1;endArrow=classic;html=1;rounded=0;exitX=0.96;exitY=0.7;exitDx=0;exitDy=0;exitPerimeter=0;" edge="1" parent="1">
          <mxGeometry width="50" height="50" relative="1" as="geometry">
            <mxPoint x="550" y="367" as="sourcePoint" />
            <mxPoint x="620" y="450" as="targetPoint" />
            <Array as="points">
              <mxPoint x="670.75" y="367" />
              <mxPoint x="670.75" y="340" />
              <mxPoint x="600.75" y="350" />
            </Array>
          </mxGeometry>
        </mxCell>
        <mxCell id="QuFJc0p54Mi-NLRQRqYn-19" value="&lt;b&gt;&lt;font style=&quot;font-size: 16px;&quot;&gt;NO&lt;/font&gt;&lt;/b&gt;" style="text;html=1;strokeColor=none;fillColor=none;align=center;verticalAlign=middle;whiteSpace=wrap;rounded=0;" vertex="1" parent="1">
          <mxGeometry x="70" y="200" width="60" height="30" as="geometry" />
        </mxCell>
        <mxCell id="QuFJc0p54Mi-NLRQRqYn-20" value="&lt;b&gt;&lt;font style=&quot;font-size: 16px;&quot;&gt;NO&lt;/font&gt;&lt;/b&gt;" style="text;html=1;strokeColor=none;fillColor=none;align=center;verticalAlign=middle;whiteSpace=wrap;rounded=0;" vertex="1" parent="1">
          <mxGeometry x="300" y="350" width="60" height="30" as="geometry" />
        </mxCell>
        <mxCell id="QuFJc0p54Mi-NLRQRqYn-21" value="&lt;b&gt;&lt;font style=&quot;font-size: 16px;&quot;&gt;YES&lt;/font&gt;&lt;/b&gt;" style="text;html=1;strokeColor=none;fillColor=none;align=center;verticalAlign=middle;whiteSpace=wrap;rounded=0;" vertex="1" parent="1">
          <mxGeometry x="414" y="150" width="60" height="30" as="geometry" />
        </mxCell>
        <mxCell id="QuFJc0p54Mi-NLRQRqYn-24" value="&lt;b&gt;&lt;font style=&quot;font-size: 16px;&quot;&gt;YES&lt;/font&gt;&lt;/b&gt;" style="text;html=1;strokeColor=none;fillColor=none;align=center;verticalAlign=middle;whiteSpace=wrap;rounded=0;" vertex="1" parent="1">
          <mxGeometry x="620" y="310" width="60" height="30" as="geometry" />
        </mxCell>
        <mxCell id="QuFJc0p54Mi-NLRQRqYn-31" value="is it also cleanly &lt;br&gt;divisible by 400?" style="ellipse;shape=cloud;whiteSpace=wrap;html=1;" vertex="1" parent="1">
          <mxGeometry x="520" y="440" width="175" height="110" as="geometry" />
        </mxCell>
        <mxCell id="QuFJc0p54Mi-NLRQRqYn-32" value="" style="curved=1;endArrow=classic;html=1;rounded=0;exitX=0.206;exitY=0.845;exitDx=0;exitDy=0;exitPerimeter=0;" edge="1" parent="1" source="QuFJc0p54Mi-NLRQRqYn-31">
          <mxGeometry width="50" height="50" relative="1" as="geometry">
            <mxPoint x="549" y="524.7" as="sourcePoint" />
            <mxPoint x="476.25" y="600" as="targetPoint" />
            <Array as="points">
              <mxPoint x="535" y="580" />
              <mxPoint x="485" y="530" />
            </Array>
          </mxGeometry>
        </mxCell>
        <mxCell id="QuFJc0p54Mi-NLRQRqYn-33" value="" style="curved=1;endArrow=classic;html=1;rounded=0;" edge="1" parent="1">
          <mxGeometry width="50" height="50" relative="1" as="geometry">
            <mxPoint x="640" y="540" as="sourcePoint" />
            <mxPoint x="650" y="600" as="targetPoint" />
            <Array as="points">
              <mxPoint x="700" y="557" />
              <mxPoint x="720" y="540" />
              <mxPoint x="680.75" y="540" />
            </Array>
          </mxGeometry>
        </mxCell>
        <mxCell id="QuFJc0p54Mi-NLRQRqYn-34" value="&lt;b&gt;&lt;font style=&quot;font-size: 16px;&quot;&gt;NO&lt;/font&gt;&lt;/b&gt;" style="text;html=1;strokeColor=none;fillColor=none;align=center;verticalAlign=middle;whiteSpace=wrap;rounded=0;" vertex="1" parent="1">
          <mxGeometry x="466.25" y="510" width="60" height="30" as="geometry" />
        </mxCell>
        <mxCell id="QuFJc0p54Mi-NLRQRqYn-36" value="&lt;b&gt;&lt;font style=&quot;font-size: 16px;&quot;&gt;YES&lt;/font&gt;&lt;/b&gt;" style="text;html=1;strokeColor=none;fillColor=none;align=center;verticalAlign=middle;whiteSpace=wrap;rounded=0;" vertex="1" parent="1">
          <mxGeometry x="680" y="510" width="60" height="30" as="geometry" />
        </mxCell>
        <mxCell id="QuFJc0p54Mi-NLRQRqYn-37" value="NOT LEAP" style="shape=hexagon;perimeter=hexagonPerimeter2;whiteSpace=wrap;html=1;fixedSize=1;fillColor=#f8cecc;strokeColor=#b85450;" vertex="1" parent="1">
          <mxGeometry x="440" y="600" width="85" height="60" as="geometry" />
        </mxCell>
        <mxCell id="QuFJc0p54Mi-NLRQRqYn-38" value="LEAP" style="ellipse;whiteSpace=wrap;html=1;aspect=fixed;fillColor=#d5e8d4;strokeColor=#82b366;" vertex="1" parent="1">
          <mxGeometry x="230" y="440" width="80" height="80" as="geometry" />
        </mxCell>
        <mxCell id="QuFJc0p54Mi-NLRQRqYn-39" value="LEAP" style="ellipse;whiteSpace=wrap;html=1;aspect=fixed;fillColor=#d5e8d4;strokeColor=#82b366;" vertex="1" parent="1">
          <mxGeometry x="610" y="600" width="80" height="80" as="geometry" />
        </mxCell>
      </root>
    </mxGraphModel>
  </diagram>
</mxfile>
